<?xml version="1.0" encoding="UTF-8"?>
<svg id="Layer_2" data-name="Layer 2" xmlns="http://www.w3.org/2000/svg" viewBox="0 0 2182.47 1878.42">
  <defs>
    <style>
      .cls-1 {
        fill: #dcf238;
      }

      .cls-2 {
        fill: #014035;
      }
    </style>
  </defs>
  <g id="Layer_1-2" data-name="Layer 1">
    <g>
      <g>
        <path class="cls-2" d="m924.28,22.06c-9.33-3.77-19.65-7.68-30.66-11.14.54-.07,1.09-.14,1.63-.2,5.36-.64,10.52-.98,15.57,2.25,1.83,1.17,5.6.64,7.83-.44,4.55-2.19,8.86-1.81,13.39-.6,2.85.75,5.73,1.42,9.42,2.32-5.09,5.11-2.18,9.35.31,13.52.41.67.65,1.3.75,1.89-6.02-2.57-12.14-5.13-18.24-7.59Z"/>
        <path class="cls-2" d="m1015.64,818.52c3.58,2.23,7.21,4.19,10.89,5.88-1,.1-2,.24-3.01.41-1.24.22-3.16-.85-4.1-1.92-1.28-1.45-2.54-2.91-3.78-4.38Z"/>
        <path class="cls-2" d="m1195.44,714.29c1.25-2.63,2.46-5.29,3.62-7.96-.03.21-.06.41-.09.62-.44,2.62-1.59,5.8-3.52,7.33Z"/>
        <path class="cls-2" d="m1355.78,377.28c-4.46,6.14-8.98,12.21-13.62,18.21-2.73,3.53-6.56,6.25-9.98,9.22-3.94,3.41-8.37,6.33-11.91,10.11-6.82,7.26-12.89,15.25-19.82,22.4-4.6,4.74-10.04,8.67-15.07,13.01-.41.35-.81.7-1.22,1.05-2.49,2.21-5,4.55-6.82,7.29-1.83,2.75-3.74,5.04-6.42,7.12-2.78,2.15-5.03,5.34-6.73,8.5-4.41,8.18-8.44,16.58-12.51,24.94-.4.83-.35,2.19.07,3.03.73,1.51,1.7,3.04,2.94,4.15,4.63,4.14,5.05,9.13,3.52,14.69-1.79,6.49-2.28,12.81,1.67,18.88,1.09,1.68,1.01,4.05,1.82,5.96,1.23,2.91,2.25,6.19,4.32,8.41.78.83,1.45,1.67,2,2.51,1.91,2.94,2.36,6,.6,9.57-.26.53-.5,1.05-.73,1.58-4.01,9.11-3.96,18.33-.68,27.81.51,1.48.41,3.39-.04,4.92-1.96,6.65-3.9,12.79-9.73,18.04-1.55,1.39-3.08,2.73-4.63,3.99-1.48,1.23-2.98,2.38-4.53,3.45-4.18,2.92-8.66,5.26-13.92,6.69-8.77,2.38-14.68,8.78-19.49,16.26-.86,1.34-2.2,2.49-3.54,3.39-4.63,3.13-9.37,6.12-13.99,9.25-.86.59-1.73,1.18-2.58,1.78-.72.51-.85,2.3-.74,3.46.03.44.08.87.11,1.31-2.62,5.7-4.89,11.52-7.07,17.13-.79,2.02-1.57,4.03-2.36,6-12.93,32.37-32.74,62.56-57.28,87.29-21.92,22.09-42.43,33.39-62.69,34.53-23.77,1.34-44.61-11.6-60.53-28.95-3.62-9.45-8.48-18.28-14.68-26.4-4.59-6-7.46-12.41-8.64-19.9-.72-4.58-2.44-9.15-4.51-13.32-2.57-5.14-3.47-10.28-3.11-15.94.16-2.46-.93-4.98-1.36-7.5-.56-3.33-1.49-6.67-1.43-9.99.09-4.62-.62-8.86-3.13-12.74-1.29-1.99-2.57-3.97-3.86-5.95-2.99-4.61-5.99-9.22-9.01-13.81-1-1.53-2.09-3.02-3.29-4.41-1.61-1.86-2.98-3.78-4.15-5.76-6.14-10.35-6.84-22.21-6.92-34.21,0-1.89.85-3.81,1.41-5.68,2-6.63,4.18-13.22,6.05-19.88,1.02-3.67,2.52-6.75,5.79-9,4.23-2.92,6.31-7.01,6.73-12.28.32-3.99,1.8-7.88,2.5-11.86.22-1.29,0-2.98-.69-4.05-2.41-3.7-4.49-7.37-3.75-12.04.66-4.13-.54-7.84-2.11-11.74-2.68-6.63-5.03-13.48-6.56-20.46-1.86-8.48-5.71-15.76-11.29-22.16-4.91-5.63-10.35-10.8-15.38-16.33-2.82-3.09-5.34-6.46-7.88-9.8-6.28-8.25-5.61-17.96-3.27-26.78,1.2-4.53,1.11-8.79,1.85-13.12.72-4.12,2.11-8.31,4.11-11.98,2.24-4.09,2.74-8.36-.14-11.98-3.17-4.01-6.5-7.89-9.64-11.93-1.34-1.72-2.52-1.39-4.39-.82-2.75.84-6.12,1.95-8.53,1.05-3.96-1.49-7.19-.9-10.4,1.05-3.54,2.16-6.51,1.56-9.05-1.41-.57-.66-1.15-1.33-1.74-2-2.62-2.98-5.28-5.98-7.26-9.35-2.7-4.59-6.57-6.91-11.4-7.32-7.58-.65-15.21-.92-22.8-.76-2.38.05-4.7,2.03-7.1,3.01-2.26.92-4.61,2.38-6.9,2.36-7.37-.08-13.51,2.79-19.37,6.73-1.85,1.24-3.78,2.36-5.68,3.52-.76.46-1.53.83-2.31,1.08-2.32.79-4.69.67-7.09-.51-.02,0-.03-.02-.04-.03-8.13-4-16.3-4.18-24.7-2.73-2.09.36-4.2.82-6.32,1.35-7.7,1.91-15.77,2.66-23.72,3.03-8.75.41-16.14-3.55-23-8.85-7.27-5.6-14.77-10.9-22.19-16.31-1.36-.99-2.73-1.99-4.09-3-4.31-3.2-9.02-6.08-12.59-9.98-2.95-3.23-4.55-7.73-6.69-11.69-1.52-2.82-2.39-6.2-4.52-8.42-9.5-9.98-19.18-19.81-29.14-29.32-5.21-4.97-6.77-10.47-4.54-17.04,1.56-4.6,1.41-8.73-.74-13.21-2.93-6.12-2.5-7.39,2.44-12.02,2.74-2.57,4.68-5.46,5.89-8.73.66-1.77,1.11-3.66,1.36-5.67.65-5.33,2.05-10.59,2.37-15.92.09-1.39.09-2.79.06-4.19,3.33-14.74,8.37-28.72,13.91-40.4,9.97-21.05,22.64-36.44,37.65-45.77,1.9-1.18,3.86-2.28,5.86-3.3.67-.34,1.75-.68,2.8-1.09v-20.79c-2.84,1.03-5.66,2.19-8.41,3.47,2.16-1.98,4.6-3.55,7.46-4.79,11.22-4.85,19.48-12.9,26.09-22.74.99-1.48,1.95-3,2.88-4.55,2.57-4.35,5.84-8.29,8.74-12.46,2.23-3.2,4.77-6.26,6.47-9.73,2.38-4.84,5.6-8.56,10.72-10.34,7.71-2.7,13.53-7.73,18.62-13.96,2.37-2.89,5.34-5.36,8.35-7.62,2.79-2.09,6.11-2.02,8.69.43,1.64,1.56,3.39,2.52,5.2,2.95,2.15.51,4.41.27,6.76-.6,4.99-1.84,9.55-.34,14.1,1.33,3.01,1.11,5.25.84,7.81-1.44,4.11-3.66,8.83-6.11,14.76-3.98,1.15.41,3.21.14,4.03-.67.77-.75,1.57-1.37,2.41-1.89,28.14,1.57,55.21,11,78.62,20.44,4.42,1.79,8.89,3.65,13.32,5.51-.77,1.18-1.54,2.61-2.68,4.41,3.21-.32,5.21-.47,7.2-.73,2.22-.29,3.95.09,4.28,2.72.52,3.99,3.34,5.17,6.82,5.87,8.97,1.82,17.94,3.71,26.85,5.81,4.37,1.03,7.31,3.99,8.84,8.22,1.02,2.8,2.91,4.34,5.93,4.22,8.32-.37,15.38,2.71,21.69,7.83,4.98,4.03,10.6,3.17,16.19,2.2,2.7-.47,3.15-2.79,2.53-4.93-.12-.42-.23-.84-.32-1.24-1.51-6.88,1.36-12.14,6.78-16.27.63-.48,1.32-.95,2.06-1.36,1.66-.97,3.51-1.68,5.23-1.74,6.62-.27,13,.96,18.77,4.73,1.8,1.17,4.47,1.99,6.5,1.62,3.81-.7,6.94-.04,9.56,1.88,1.04.76,2,1.72,2.89,2.88,1.7,2.2,3.74,2.88,6.5,2.6,9.52-.98,18.42,2.18,27.38,4.61,3.43.92,6.42,1.17,9.48-.09.79-.33,1.58-.76,2.39-1.3,5.83-3.9,11.69-8.17,19.49-7.11,5.03.69,9.79,1.49,13.17,5.98.73.98,3.2,1.28,4.63.94,2.11-.5,4.02-1.87,6.01-2.86,2.88-1.42,5.15-.58,6.71,2.04,3.43,5.74,7.24,11.31,10.01,17.34,3.2,6.97,1.05,14.08-.54,21.78-.04.25-.1.5-.15.75-5.77-2.63-10.11-5.74-13.15-10.46-.91-1.41-1.79-2.84-2.6-4.31-.71-1.3-1.36-2.62-1.93-3.96-2.06-4.92-6.17-5.79-11.95-6.46.83.82,1.56,1.68,2.25,2.57,4.94,6.46,6.61,14.42,14.01,18.3,1.44.76,2.19,3,3.07,4.65,1.71,3.2,2.79,6.84,5,9.61,5.07,6.35,10.47,12.46,16.11,18.31,4.1,4.26,6.08,9.16,6.12,14.85.03,4.55,1.52,8.08,5.3,10.75,9.83,6.98,14.12,17.1,15.18,28.61.33,3.51,1.03,6.75,2.2,9.7,0,0,0,.02.02.03,1.04,2.62,2.43,5.02,4.24,7.19,1.61,1.92,3.52,3.67,5.8,5.25,5.46,3.77,9.33,8.91,10.99,15.38,1.93,7.54,6.78,12.83,12.51,17.62,8.46,7.07,16.95,14.11,25.21,21.4,3.72,3.28,7.11,6.99,10.34,10.77.7.82,1.27,1.52,1.71,2.14,1.91,2.74,1.38,4.13-1.04,8.32-.43.75-.69,1.61-1.32,3.11,7.52-1.38,10.62,4.07,14.41,8.25,2.29,2.51,4.47,3.14,7.57,1.41,3.52-1.95,7.19-3.08,11.03-3.46,12.92,7.97,23.98,16.8,29.82,29.45,6.5,14.06,4.96,28.91.18,42.29Z"/>
        <path class="cls-2" d="m1385.1,319.84c.06,2.52-2.06,5.34-3.72,7.63-1.99,2.74-3.69,5.58-5.15,8.52-.89-2.99-2-5.99-3.39-8.97-5.27-11.41-13.23-20.17-22.47-27.51,4.39-.58,8.61-1.81,12.78-3.84,4.61-2.24,9.88-3.14,14.88-4.54,2.6-.72,4.66.28,4.94,3,.92,8.56,1.91,17.13,2.12,25.72Z"/>
        <path class="cls-1" d="m1175.41,724.92c-3.36,1.9-4.52,4.8-5.55,8.73-2.99,11.29-5.91,22.8-15.16,31.31-15.75,14.48-31.28,29.19-46.79,43.91-4.87,4.63-10.17,8.13-16.95,9.29-2.38.41-4.51,2.24-6.89,2.65-4.55.8-9.35,2-13.78,1.33-7.95-1.2-15.39-.72-23.29.9-6.61,1.36-13.6.64-20.47,1.35,11.35,5.22,23.11,7.9,34.91,7.9,1.46,0,2.92-.03,4.38-.12,25.17-1.42,49.74-14.55,75.11-40.12,22.27-22.45,40.91-49.07,54.5-77.76-3.54,2.78-7.88,4.55-11.93,6.66-2.66,1.39-5.48,2.5-8.08,3.96Z"/>
        <path class="cls-1" d="m1013.77,76.4c4.64,1.17,9.33,2.22,14.04,3.17,11.29,2.29,22.71,4.03,33.86,5.74,32.63,4.99,63.45,9.72,89.22,26.42,29.09,18.87,46.7,49.7,65.34,82.34,2.67,4.67,5.35,9.36,8.08,14.05,0,0,0,.02.02.03,1.4,2.4,2.82,4.8,4.24,7.19,14.66,24.45,31.16,47.92,54.69,64.81,3.83,2.75,7.82,5.3,11.87,7.75,4.88,2.95,9.86,5.73,14.74,8.46,5.46,3.05,10.82,6.05,15.91,9.17,2.35-.22,4.75-.16,7.23.17,1.81.25,4.6-.92,5.69-2.38,1.93-2.56,4.21-3.35,7.06-3.46,1.56-.05,3.1-.18,4.62-.38-9.56-7.61-20.5-13.73-31.24-19.73-8.86-4.95-17.23-9.63-24.8-15.06-26.94-19.33-43.78-48.83-61.61-80.06-13.92-24.39-28.19-49.39-47.88-69.42-4.93-5.02-10.2-9.73-15.89-14.02-2.5-1.89-5.06-3.7-7.72-5.42-1.3-.84-2.6-1.65-3.91-2.44-10.9-6.53-22.45-11.29-34.34-14.94-15.08-4.64-30.71-7.52-46.26-9.99-4.06-.65-8.12-1.27-12.16-1.89-9.22-1.41-18.63-2.85-27.9-4.6-6.18-1.15-12.28-2.44-18.23-3.95-23.51-5.95-46.58-15.81-68.9-25.34-2.32-.99-4.66-1.99-7.01-2.99.28,1.49-.34,2.8-1.58,4.09-3.09,3.21-6.25,6.38-9.19,9.73-.46.52-.85,1.08-1.26,1.72,3.9,1.64,7.77,3.3,11.57,4.92,22.98,9.82,46.74,19.97,71.7,26.28Z"/>
        <path class="cls-1" d="m1392.38,612.07c-7.54-6.71-16.88-8.6-25.57-8.57.32,3.46.64,6.94.95,10.4.18,2.03.26,4.07.42,6.85-2.71-1.05-4.7-1.83-6.74-2.62-.28.44-.71.82-.64,1.05.39,1.27.64,2.5.75,3.7,7.39-.8,14.03-.32,18.18,3.38,7.26,6.45,3.65,21.59-4.41,30.82-7.79,8.92-19.07,15.06-31.74,17.43-2.74.52-5.54.86-8.38,1.01-15.14.82-29.61-3.7-40.1-12.45-.61-.51-1.21-1.03-1.79-1.56-6.73-6.2-11.72-13.73-15.41-22.04l17.91-3.65c1.21-6.61,5.39-13.59,10.83-16.14,4.26-2,9.14-2.67,13.75-3.9.73-.2,2.07-.03,2.2-.38,1.31-3.57,4.72-4.59,7.83-5.99l-58.47,11.89c-3.58-15.53-4.22-32.13-4.13-46.94,0-2.16.03-4.3.05-6.46v-.29l.04-3.33c.03-2.5.06-5.01.08-7.53.11-15.64-.1-31.67-2.82-47.56-1.47-8.6-3.63-16.62-6.43-23.89,2.38-1.67,4.93-3.48,7.71-5.5,2.82-2.05,6.67-3.58,10.75-5.19,1.81-.72,3.67-1.45,5.52-2.27,11.13-4.91,25.61-11.75,38.91-21.21,6.14-4.35,12.01-9.28,17.44-14.61,1.31-1.3,2.84-2.81,4.33-4.43,11.33-12.41,45.21-54.06,32.8-96.1-2.72,5.43-4.6,11.19-5.86,17.3-.73,3.57-2.6,7.13-4.73,10.16-3.26,4.63-6.55,9.25-9.87,13.83-6.86,19.23-20.39,35.44-26.37,41.99-1.17,1.28-2.48,2.57-3.61,3.69-4.72,4.63-9.81,8.9-15.13,12.68-8.23,5.85-17.15,10.67-25.28,14.58-3.64,1.75-7.11,3.33-10.3,4.72-1.52.67-3.14,1.31-4.85,2-4.76,1.88-10.15,4.03-14.92,7.49-.98.72-1.94,1.41-2.87,2.07-.99-3.57-2.45-7.18-4.34-10.66-15.63-29.01-55.03-50.34-71.24-58.16-29.7-14.33-61.35-22.05-92.19-26.4-.45-12.31-2.2-24.24-5.26-35.73-7.43-27.97-25.1-54.41-48.48-72.53-25.1-19.47-54.36-27.82-82.36-23.51-21.28,3.27-40.96,13.17-59.98,22.74-25.94,13.05-50.44,25.38-75.33,18.99-27.17-6.97-44.65-35.28-54.54-57.8-.16-.37-.32-.73-.48-1.11-8.03-18.53-14-37.95-17.86-57.78-1.93-9.92-3.33-19.94-4.19-30.01-.38-4.57-.16-9.43-1.31-13.84-1.01-3.84-.16-7.3-.05-11.39.4-15.61,3.14-32.33,10.56-46.32,8.6-16.24,24.09-29.01,43.3-36.52,10.29-4.02,21.63-6.53,33.55-7.25,5.47-.33,10.92-.32,16.33,0,4.14-2.59,9.01-2.7,13.73-3.29,13.77-1.75,27.55-3.4,41.34-5.04-22.19-7-47.2-12.18-72.54-10.64-40.76,2.46-76.21,23.1-92.49,53.84-4.37,8.26-7.55,17.36-9.58,27.65-3.98,20.19-3.27,41.38-1.05,61.74,3.31,30.14,11.17,59.83,23.37,87.6,16.61,37.82,39.85,61.54,67.21,68.56,31.79,8.15,60.66-6.37,88.6-20.43,17.71-8.91,36.01-18.12,54.33-20.94,50.43-7.76,97.38,36.21,109.59,82.15,2.43,9.14,3.9,18.68,4.44,28.53-14.55-1.48-28.78-2.33-42.38-2.92-6.53-.28-13.05-.57-19.56-.86-13.14-.58-26.41-1.18-39.77-1.68-10.27-18.83-18.73-38.76-25.11-59.38-.92-2.96-1.81-5.97-2.63-8.94l-18.31,5.1c.88,3.14,1.81,6.33,2.79,9.47,5.65,18.25,12.84,36,21.4,52.99-25.03-.75-50.33-1.08-75.67-.45-60.24,1.51-129.13.73-184.18-27.9-23.84-12.4-41.33-31.33-47.98-51.93-3.98-12.34-5.1-25.89-4.23-39.51.54-8.66,1.88-17.34,3.78-25.78-.08-3.91-.47-7.83-.48-11.75,0-1.93.14-4.29,1.23-5.69,5.4-6.96,5.5-7.86.67-15.13-2.67-4.01-2.35-8.26.1-12.21,1.36-2.21,3.48-3.94,4.9-6.12,1.46-2.25,2.4-4.82,3.73-7.16,1.11-1.95,2-4.56,3.75-5.54,7.64-4.26,12.44-10.81,15.78-18.5,2.22-5.11,5.66-8.99,9.76-12.6,3.22-2.82,6.29-5.94,8.89-9.34,1.09-1.42,2.24-2.69,3.48-3.83-3.52,1.64-6.94,3.49-10.27,5.56-18.17,11.28-33.24,29.38-44.8,53.78-15.24,32.17-27.01,80.5-14.36,119.67,8.18,25.32,29.06,48.27,57.3,62.95,3.47,1.81,6.99,3.51,10.55,5.11,23.76,10.73,49.28,17.1,75.24,20.77,8.21,1.17,16.45,2.06,24.7,2.73,2.38.21,4.76.38,7.14.54,25.79,1.74,51.49,1.5,75.81.89,2.35-.06,4.69-.11,7.03-.15,26.49-.48,52.45.03,78.72.95,11.95,20.32,25.93,39.29,41.67,56.41,12.44,13.54,26.58,26.99,43.38,41.22-1.82,3.44-3.73,6.87-5.73,10.3-8.54,14.71-18.48,29.41-28.08,43.64-23.99,35.52-48.73,72.15-56.67,114.88-.59,3.15-1.08,6.34-1.48,9.56-3.92,32,2.35,66.42,18.15,99.53,9.94,20.86,24.27,39.54,40.34,52.6,3.78,3.08,7.64,5.84,11.58,8.28-2.98-3.5-5.87-7.07-8.66-10.72-.74-.98-.79-3.2-.19-4.34,1.75-3.33,1.49-6.56.52-9.93-.9-3.15-1.93-6.25-3.09-9.28-9.82-10.69-17.76-23.07-23.36-34.81-12.23-25.65-18.16-52-17.36-76.93.13-4.08.44-8.12.93-12.11,5.2-42.34,29.4-78.18,55.03-116.13,9.79-14.49,19.9-29.45,28.76-44.72,1.46-2.51,2.88-5.03,4.25-7.54,4.28,3.43,8.72,6.91,13.32,10.46,21.05,16.22,46.03,33.3,78.05,33.3,1.9,0,3.83-.06,5.77-.19,21.78-1.38,41.42-10.6,59.4-20.36,11.51-6.25,22.73-12.73,33.41-19.3,1.69,5.05,3.03,10.49,4.04,16.44,2.87,16.77,2.67,34.52,2.47,51.68l-.03,3.34c-.03,2.28-.05,4.55-.06,6.83-.09,15.18.55,32.05,3.97,48.42.16.81.34,1.62.52,2.43l-5.04,1.02-1.48.3c-7.36,1.49-15.71,3.2-23.43,7.24-12.1,6.33-20.01,16.66-26.03,28.06-1.13,2.15-2.19,4.34-3.21,6.55.3,3.58.65,7.16,1.34,10.67.56,2.86,1.89,5.55,2.73,8.37.64,2.12,1.43,4.33,1.46,6.5.06,4.18,0,8.42-.62,12.54,1.15-2.62,2.25-5.25,3.31-7.9.8-2.03,1.61-4.09,2.41-6.15,6.62-16.96,13.45-34.48,27.43-41.8,5.34-2.79,11.98-4.15,18.41-5.45l8.3-1.68c4.73,11.93,11.61,22.99,21.54,32.14.92.85,1.87,1.67,2.83,2.46,13.7,11.26,32.07,17.25,51.2,16.62.59-.02,1.17-.04,1.76-.08,21.11-1.14,40.58-10.22,53.41-24.91,14.17-16.22,19.25-42.82,2.73-57.51Zm-346.25-149.99c-14.58-12.55-27.01-24.48-37.99-36.43-12.08-13.16-23.07-27.46-32.82-42.67,9.05.38,18.17.79,27.38,1.19,6.52.29,13.05.59,19.59.86,13.82.6,28.31,1.48,43.09,3.03-1.5,23.67-7.99,48.71-19.25,74.02Zm153.82,36.46c-16.07,8.72-33.43,16.95-51.53,18.1-25.48,1.62-46.07-9.98-71.02-29.2-5.64-4.34-11-8.58-16.13-12.72,8.48-18.13,14.74-36.28,18.69-54.18,2.25-10.22,3.71-20.26,4.39-30.09,28.44,4.18,57.38,11.39,84.25,24.36,11.35,5.48,49.42,25.27,62.78,50.06,1.81,3.37,3.03,6.94,3.43,10.05.14,1.08.33,2.1.56,3.07-11.25,7-23.15,13.92-35.42,20.58Z"/>
        <path class="cls-2" d="m693.86,105.82v20.79c-1.05.41-2.13.75-2.8,1.09-1.99,1.02-3.96,2.12-5.86,3.3-15.01,9.33-27.68,24.72-37.65,45.77-5.54,11.68-10.58,25.65-13.91,40.4-.08-3.91-.47-7.83-.48-11.75,0-1.93.14-4.29,1.23-5.69,5.4-6.96,5.5-7.86.67-15.13-2.67-4.01-2.35-8.26.1-12.21,1.36-2.21,3.48-3.94,4.9-6.12,1.46-2.25,2.4-4.82,3.73-7.16,1.11-1.95,2-4.56,3.75-5.54,7.64-4.26,12.44-10.81,15.78-18.5,2.22-5.11,5.66-8.99,9.76-12.6,3.22-2.82,6.29-5.94,8.89-9.34,1.09-1.42,2.24-2.69,3.48-3.83,2.76-1.29,5.57-2.44,8.41-3.47Z"/>
        <path class="cls-2" d="m1199.06,706.33c-1.16,2.67-2.37,5.32-3.62,7.96,0,0,0,0,0,0-3.54,2.78-7.88,4.55-11.93,6.66-2.66,1.39-5.48,2.5-8.08,3.96-3.36,1.9-4.52,4.8-5.55,8.73-2.99,11.29-5.91,22.8-15.16,31.31-15.75,14.48-31.28,29.19-46.79,43.91-4.87,4.63-10.17,8.13-16.95,9.29-2.38.41-4.51,2.24-6.89,2.65-4.55.8-9.35,2-13.78,1.33-7.95-1.2-15.39-.72-23.29.9-6.61,1.36-13.6.64-20.47,1.35-3.68-1.69-7.32-3.65-10.89-5.88-2.98-3.5-5.87-7.07-8.66-10.72-.74-.98-.79-3.2-.19-4.34,1.75-3.33,1.49-6.56.52-9.93-.9-3.15-1.93-6.25-3.09-9.28,15.91,17.34,36.75,30.28,60.53,28.95,20.26-1.15,40.77-12.45,62.69-34.53,24.54-24.74,44.35-54.93,57.28-87.29.79-1.98,1.57-3.98,2.36-6,2.19-5.61,4.46-11.43,7.07-17.13.3,3.58.65,7.16,1.34,10.67.56,2.86,1.89,5.55,2.73,8.37.64,2.12,1.43,4.33,1.46,6.5.06,4.18,0,8.42-.62,12.54Z"/>
        <path class="cls-2" d="m940.94,33.74c-3.09,3.21-6.25,6.38-9.19,9.73-.46.52-.85,1.08-1.26,1.72-4.43-1.87-8.9-3.72-13.32-5.51-23.41-9.44-50.48-18.86-78.62-20.44,4.14-2.59,9.01-2.7,13.73-3.29,13.77-1.75,27.55-3.4,41.34-5.04,11.01,3.46,21.34,7.38,30.66,11.14,6.1,2.46,12.22,5.03,18.24,7.59.28,1.49-.34,2.8-1.58,4.09Z"/>
        <path class="cls-2" d="m1376.23,335.99c-2.72,5.43-4.6,11.19-5.86,17.3-.73,3.57-2.6,7.13-4.73,10.16-3.26,4.63-6.55,9.25-9.87,13.83,4.78-13.38,6.31-28.23-.18-42.29-5.84-12.65-16.9-21.47-29.82-29.45,2.35-.22,4.75-.16,7.23.17,1.81.25,4.6-.92,5.69-2.38,1.93-2.56,4.21-3.35,7.06-3.46,1.56-.05,3.1-.18,4.62-.38,9.23,7.34,17.2,16.1,22.47,27.51,1.38,2.99,2.5,5.99,3.39,8.97Z"/>
        <path class="cls-1" d="m1360.81,619.19c.39,1.27.64,2.5.75,3.7-3.31.35-6.77.97-10.24,1.68l-55.49,11.27c1.21-6.61,5.39-13.59,10.83-16.14,4.26-2,9.14-2.67,13.75-3.9.73-.2,2.07-.03,2.2-.38,1.31-3.57,4.72-4.59,7.83-5.99h0l17.07-3.47c4.97-1.01,11.89-2.41,19.28-2.44.32,3.46.64,6.94.95,10.4.18,2.03.26,4.07.42,6.85-2.71-1.05-4.7-1.83-6.74-2.62-.28.44-.71.82-.64,1.05Z"/>
        <path class="cls-2" d="m1357.4,636.51c-1.74,2.51-2.76,5.69-3.46,8.71-2.34,10.21-6.16,19.82-10.36,29.29-2.9,6.56-6,13.03-8.91,19.59-.07.16-.14.31-.21.47-3.66,8.22-7.52,16.35-11.37,24.48-.95,2-2.13,3.91-3.36,5.77-1.8,2.72-4.23,4.24-7.66,3.58-3.48-.67-6.19.31-8.91,2.82-1.35,1.24-4.53,1.73-6.31,1.05-3.88-1.47-7.44-3.83-11.04-5.96-2.91-1.72-4.07-4.38-3.35-7.72,1.35-6.29,1.36-12.36-1.43-18.42-3.14-6.82-1.25-13.63,1.02-20.26.22-.67.67-1.37,1.21-1.95.37-.4.79-.73,1.21-.97,6.01-3.31,9.13-8.21,10.62-13.91.67-2.49,1.01-5.13,1.16-7.86.25-4.68-.27-9.42-.72-14.11-.16-1.66-.05-3.46.28-5.27l55.49-11.27c3.46-.71,6.93-1.32,10.24-1.68.48,4.88-1.18,9.3-4.15,13.63Z"/>
        <path class="cls-2" d="m1366.81,603.5c-7.39.03-14.31,1.43-19.28,2.44l-17.07,3.47c2.31-1.05,4.47-2.33,5.42-5.05.74-2.12,2.48-3.9,3.2-6.03,1.07-3.15,2.19-5.13,5.86-6.77,3.48-1.55,5.49-6.49,8.02-10.02,1.19-1.66-.04-5.23,3.83-4.73,4.32.54,7.84,3.31,8.29,6.62.22,1.55.17,3.14.31,4.71.47,5.12.94,10.24,1.41,15.38Z"/>
      </g>
      <g>
        <polygon class="cls-1" points="192.18 1188.94 192.18 1255.77 1.6 1255.77 1.6 954.64 78.32 954.64 78.32 1188.94 192.18 1188.94"/>
        <path class="cls-1" d="m354.71,1264.02c-28.88,0-53.28-5.36-73.22-16.09-19.94-10.73-35.13-25.92-45.58-45.58-10.45-19.66-15.68-42.97-15.68-69.92v-177.79h76.73v179.44c0,11.83,2.27,22.14,6.81,30.94,4.54,8.8,11.07,15.54,19.59,20.21,8.52,4.68,18.98,7.01,31.35,7.01s22.82-2.33,31.35-7.01c8.52-4.67,14.99-11.34,19.39-20.01,4.4-8.66,6.6-19.04,6.6-31.14v-179.44h76.73v177.79c0,26.95-5.16,50.26-15.47,69.92-10.31,19.67-25.44,34.86-45.38,45.58-19.94,10.73-44.34,16.09-73.22,16.09Z"/>
        <path class="cls-1" d="m890.55,954.64v301.12h-75.9v-225.99l-65.59,165.36h-69.71l-65.18-163.47v195.53c-4.83-.82-9.72-1.39-14.65-1.67-4.36-.26-8.73-.26-13.12,0-9.57.58-18.67,2.59-26.95,5.81-5.56,2.17-10.73,4.9-15.4,8.11v-284.8h106.42l61.88,158.82h8.25l61.46-158.82h108.49Z"/>
        <path class="cls-1" d="m952.43,1255.77v-301.13h76.73v301.13h-76.73Z"/>
        <polygon class="cls-1" points="1395.04 954.64 1395.04 1255.77 1268.4 1255.77 1168.16 1015.69 1161.97 1015.69 1161.97 1255.77 1091.03 1255.77 1091.03 954.64 1216.84 954.64 1317.08 1194.72 1323.27 1194.72 1323.27 954.64 1395.04 954.64"/>
        <polygon class="cls-1" points="1649.14 1193.07 1649.14 1255.77 1456.09 1255.77 1456.09 954.64 1646.67 954.64 1646.67 1017.34 1530.34 1017.34 1530.34 1071.38 1640.48 1071.38 1640.48 1134.09 1530.34 1134.09 1530.34 1193.07 1649.14 1193.07"/>
        <path class="cls-1" d="m1804.25,1264.02c-28.05,0-51.63-4.4-70.74-13.2-19.12-8.8-33.56-20.83-43.31-36.09-9.76-15.26-14.64-32.79-14.64-52.59h74.25c0,7.15,1.99,13.68,5.98,19.59,3.98,5.92,9.96,10.52,17.94,13.82,7.97,3.3,18.15,4.95,30.53,4.95,10.73,0,19.86-1.37,27.43-4.13,7.56-2.75,13.34-6.6,17.33-11.55,3.98-4.95,5.98-10.86,5.98-17.74,0-8.8-3.71-15.6-11.14-20.42-7.43-4.81-19.94-7.9-37.54-9.28l-19.39-1.65c-31.08-2.75-55.83-12.51-74.25-29.29-18.43-16.77-27.64-39.05-27.64-66.83,0-19.8,4.6-36.71,13.82-50.74,9.21-14.03,22.2-24.75,38.98-32.18,16.77-7.43,36.57-11.14,59.4-11.14,24.75,0,45.72,4.13,62.91,12.38,17.18,8.25,30.32,19.87,39.39,34.86,9.08,14.99,13.61,32.38,13.61,52.18h-74.25c0-6.6-1.65-12.65-4.95-18.15-3.3-5.5-8.04-9.83-14.23-12.99-6.19-3.16-13.68-4.74-22.48-4.74-8.25,0-15.2,1.31-20.83,3.92-5.64,2.62-9.9,6.26-12.79,10.93-2.89,4.68-4.33,9.9-4.33,15.68,0,7.7,2.61,14.3,7.84,19.8,5.22,5.5,14.3,8.8,27.23,9.9l19.39,1.65c22.55,1.93,42.49,6.81,59.81,14.64,17.33,7.84,30.94,18.5,40.84,31.97,9.9,13.48,14.85,29.98,14.85,49.5s-5.02,36.58-15.06,51.15c-10.04,14.58-24.34,25.85-42.9,33.83-18.56,7.97-40.91,11.96-67.03,11.96Z"/>
        <polygon class="cls-1" points="2180.87 954.64 2180.87 1021.48 2098.37 1021.48 2098.37 1255.77 2021.65 1255.77 2021.65 1021.48 1939.14 1021.48 1939.14 954.64 2180.87 954.64"/>
      </g>
      <g>
        <path class="cls-1" d="m215.08,1438.01l3.43,10.92h25.51l-28.94-10.92Zm-43.13,10.92h26.16l3.32-10.92-29.48,10.92Z"/>
        <path class="cls-1" d="m290.41,1367.06H127.74L0,1765.55h101.53l28.13-92.25h159.15l28.91,92.25h104.81l-132.12-398.49Zm-135.43,223.26l43.13-141.38h20.4l44.3,141.38h-107.83Z"/>
        <path class="cls-1" d="m681.14,1599.67c-3.94-4.52-8.31-8.66-12.34-13.11-2.27-2.48-4.29-5.19-6.33-7.87-5.04-6.61-4.5-14.42-2.63-21.5.97-3.64.9-7.05,1.49-10.54.58-3.3,1.7-6.66,3.31-9.62,1.66-3.04,2.13-6.19.36-8.96h-96.19v-27.46c-32.5-1.81-65.17-7.39-93.34-22.01-2.85-1.49-5.58-3.08-8.19-4.78v291.73h101.53v-154.49h119.41c-1.68-4.17-4.06-7.95-7.08-11.39Zm-148.89-85.68c-6.2,1.54-12.67,2.13-19.06,2.43-7.03.33-12.96-2.85-18.47-7.1-5.85-4.5-11.86-8.75-17.81-13.09,19.07,8.61,39.57,13.74,60.41,16.68-1.68.29-3.38.66-5.07,1.08Z"/>
        <path class="cls-1" d="m705.84,1528.08v9.17c-2.15-3.01-4.25-6.05-6.28-9.17h6.28Z"/>
        <path class="cls-1" d="m679.4,1447.11c.26.96.54,1.92.84,2.9h-11.27l10.43-2.9Z"/>
        <path class="cls-1" d="m711.84,1402.25v15.43c-6.53-1.12-13.24-1.24-20.05-.19-14.71,2.26-29.41,9.66-43.63,16.81-12.16,6.12-24.53,12.33-37.37,15.71h-36.2c-20.93-6.39-38.7-25.12-51.54-54.36-4.09-9.29-7.56-18.86-10.41-28.61h15.96c2.31,7.31,4.99,14.54,8.03,21.57.14.3.26.59.38.89,7.94,18.07,21.99,40.82,43.81,46.42,19.98,5.13,39.66-4.78,60.48-15.26,15.27-7.7,31.07-15.64,48.17-18.27,7.4-1.14,14.91-1.17,22.38-.16Z"/>
        <path class="cls-1" d="m1032.47,1626.21c22.6-9.94,40.29-24.18,53.05-42.73,13.64-19.82,20.47-44.66,20.47-74.51v-8.73c0-29.83-6.74-54.87-20.21-75.06-13.47-20.21-32.75-35.48-57.86-45.86-25.11-10.37-54.95-15.55-89.52-15.55h-35.22c.4.72.82,1.44,1.22,2.15,2.15,3.75,4.3,7.51,6.49,11.27,0,.02.02.02.02.04.84,2.09,1.94,4.02,3.41,5.77,11.76,19.63,25.02,38.49,43.92,52.05,3.07,2.2,6.28,4.25,9.53,6.21,1.52,2.2,1.1,3.32-.84,6.68-.35.62-.56,1.3-1.05,2.51,6.04-1.12,8.52,3.25,11.57,6.61.05.05.1.12.15.17.9.53,1.79,1.09,2.63,1.67.98.21,2.04,0,3.29-.7,2.83-1.58,5.77-2.49,8.85-2.79,1.89-.17,3.81-.12,5.81.14,1.47.21,3.69-.73,4.58-1.9,1.54-2.05,3.38-2.7,5.65-2.77,1.26-.05,2.51-.15,3.73-.31,3.52-.46,6.91-1.45,10.25-3.08,3.71-1.79,7.95-2.52,11.95-3.64,2.1-.58,3.75.21,3.97,2.4.74,6.87,1.54,13.75,1.7,20.66.05,2.03-1.64,4.29-2.99,6.12-1.59,2.21-2.96,4.48-4.13,6.84-2.19,4.36-3.69,9-4.71,13.89-.57,2.87-2.08,5.73-3.79,8.16-2.61,3.72-5.25,7.43-7.93,11.11-3.57,4.93-7.21,9.81-10.93,14.62-2.19,2.84-5.27,5.01-8.02,7.41-.03.01-.05.05-.08.07-.44.94-.93,1.87-1.44,2.78-4.91,8.73-11.74,15.46-20.47,20.19-.38.21-.77.42-1.17.61-.77.84-1.54,1.64-2.31,2.45-3.69,3.8-8.07,6.96-12.11,10.44-2.92,1.4-5.7,2.66-8.26,3.8-1.22.53-2.52,1.05-3.9,1.59-3.83,1.52-8.15,3.24-11.98,6.02-.79.58-1.56,1.12-2.29,1.66-.81-2.87-1.98-5.75-3.5-8.55-2.05-3.82-4.6-7.46-7.53-10.92h-21.55c6.38,5.42,12.11,11.57,15.66,18.16,1.45,2.7,2.43,5.57,2.74,8.07.13.85.27,1.68.46,2.45-9.03,5.63-18.58,11.18-28.45,16.53-12.89,7-26.84,13.61-41.38,14.52-20.47,1.31-36.98-8.01-57.03-23.44-4.53-3.48-8.84-6.9-12.95-10.22,6.81-14.56,11.84-29.13,15.01-43.51,1.8-8.21,2.98-16.27,3.52-24.16,22.85,3.35,46.08,9.15,67.65,19.56,1.95.94,4.87,2.39,8.37,4.3v-17.2c-.6-.31-1.17-.59-1.72-.86-23.84-11.49-49.28-17.7-74.04-21.18-.35-9.89-1.77-19.48-4.22-28.7-3.93-14.83-11.47-29.14-21.55-41.34v27.73c2.92,5.69,5.23,11.58,6.81,17.53,1.94,7.35,3.13,15.01,3.56,22.92-3.48-.35-6.94-.66-10.37-.93v15.31c3.39.27,6.82.58,10.27.95-.95,14.99-4.39,30.7-10.27,46.64v36.9c3.41,2.73,6.95,5.51,10.62,8.35,16.9,13.03,36.97,26.73,62.67,26.73,1.52,0,3.08-.03,4.64-.14,17.49-1.12,33.26-8.52,47.71-16.36,9.23-5.02,18.25-10.22,26.82-15.5,1.36,4.06,2.43,8.43,3.25,13.21,1.21,7.09,1.73,14.4,1.94,21.75h1.67l13.61,20.59.02-.67c.01-2.01.05-4.02.07-6.05,1.5,2.35,1.89,4.8.5,7.61l26.11,39.46,2.88,4.37,6.2,9.36,31.19-6.33c2.78-.58,5.57-1.07,8.23-1.35.38,3.92-.95,7.47-3.35,10.93-1.4,2.03-2.22,4.59-2.78,7-1.87,8.21-4.93,15.92-8.31,23.52-.79.15-1.59.28-2.4.38l1.32,2.01,7.57,11.45h116.84l-97.54-139.34Zm-22.62,70.44l-13.72,2.78c1.87-.84,3.59-1.87,4.36-4.06.59-1.7,1.99-3.13,2.57-4.83.87-2.54,1.77-4.13,4.71-5.44,2.8-1.24,4.41-5.21,6.43-8.05.97-1.33-.03-4.2,3.08-3.8,3.47.44,6.3,2.66,6.67,5.31.17,1.26.14,2.52.24,3.78.37,4.12.76,8.24,1.14,12.35-5.95.01-11.49,1.15-15.48,1.96Z"/>
        <path class="cls-1" d="m1178.03,1367.05v398.51h101.54v-398.51h-101.54Z"/>
        <path class="cls-1" d="m1644.23,1613.24c-3.64,20.75-14.29,37.31-31.94,49.68-17.65,12.38-39.22,18.56-64.68,18.56-16.38,0-30.94-2.63-43.68-7.91-12.74-5.28-23.56-13.01-32.48-23.2-8.92-10.19-15.65-22.39-20.2-36.58-4.55-14.19-6.82-30.2-6.82-48.04s2.27-33.84,6.82-48.04c4.55-14.19,11.1-26.29,19.66-36.3,8.54-10.01,19.1-17.74,31.66-23.2,12.55-5.46,26.65-8.19,42.31-8.19,16.73,0,31.66,2.82,44.76,8.46,13.1,5.65,23.83,13.56,32.21,23.75,8.36,10.19,13.82,22.2,16.37,36.03h101.54c-2.92-32.39-12.92-60.87-30.02-85.44-17.11-24.56-39.77-43.67-67.97-57.31-28.2-13.65-60.51-20.48-96.89-20.48-34.22,0-64.06,5.83-89.53,17.47-25.48,11.65-46.68,27.3-63.6,46.95-16.92,19.65-29.48,41.58-37.67,65.78-8.18,24.21-12.28,48.86-12.28,73.97v12.01c0,22.57,4,45.85,12.01,69.87,8,24.02,20.38,46.32,37.12,66.88,16.74,20.56,38.03,37.12,63.87,49.67,25.84,12.56,56.78,18.84,92.81,18.84,38.57,0,72.05-7.37,100.44-22.11,28.39-14.74,50.95-34.48,67.69-59.23,16.74-24.75,26.75-52.04,30.03-81.89h-101.54Z"/>
        <path class="cls-1" d="m1931.91,1448.93h26.16s3.32-10.92,3.32-10.92l-29.48,10.92Zm72.07,0l-28.94-10.92,3.43,10.91h0s25.51.01,25.51.01Z"/>
        <path class="cls-1" d="m2050.38,1367.05h-162.68l-127.75,398.51h101.54l28.14-92.26h159.14l28.9,92.26h104.8l-132.09-398.51Zm-135.44,223.27l43.13-141.38h0s20.4-.01,20.4-.01h0s44.3,141.39,44.3,141.39h-107.83Z"/>
        <g>
          <path class="cls-1" d="m684.62,1233.89c-4.85-2.06-9.76-4.13-14.66-6.11-7.49-3.03-15.78-6.16-24.62-8.94l39.28,15.05Z"/>
          <path class="cls-1" d="m743.33,1867.36c2.87,1.79,5.79,3.36,8.75,4.72-.8.08-1.61.19-2.41.33-1,.18-2.54-.69-3.29-1.54-1.03-1.17-2.04-2.34-3.04-3.52Z"/>
          <path class="cls-1" d="m887.71,1783.66c1.01-2.12,1.98-4.25,2.91-6.39-.02.17-.05.33-.08.5-.35,2.1-1.28,4.66-2.83,5.89Z"/>
          <path class="cls-1" d="m967.77,1441.26c-3.25-1.96-6.46-4.01-9.54-6.21-18.9-13.56-32.16-32.42-43.91-52.05,1.28,1.54,2.82,2.94,4.65,4.22,4.39,3.03,7.49,7.16,8.82,12.35,1.56,6.05,5.46,10.29,10.04,14.15,6.81,5.67,13.61,11.32,20.26,17.18,2.99,2.62,5.7,5.6,8.29,8.64.56.67,1.03,1.22,1.38,1.71Z"/>
          <path class="cls-1" d="m868.53,1294.81c-.73-1.14-1.43-2.27-2.1-3.46,4.58,3.45,8.8,7.23,12.77,11.27-.04.19-.09.4-.12.6-4.64-2.1-8.12-4.6-10.55-8.4Z"/>
          <path class="cls-1" d="m910.89,1377.2c-2.19-3.76-4.34-7.52-6.49-11.27-.4-.72-.82-1.43-1.22-2.15-14.52-25.42-28.52-49.25-51.25-63.98-20.68-13.42-45.44-17.2-71.65-21.22-8.94-1.36-18.13-2.76-27.19-4.6-1.21-5.53,1.1-9.75,5.44-13.07.51-.38,1.07-.77,1.66-1.1,7.44,1.4,14.99,2.55,22.39,3.69,3.25.51,6.51,1,9.78,1.52.82.61,1.59,1.38,2.31,2.31,1.38,1.77,3.01,2.31,5.23,2.08,7.65-.79,14.8,1.75,21.99,3.71,2.75.73,5.14.94,7.61-.07,9.55,2.92,18.83,6.75,27.57,11.98,3.97,5.2,5.32,11.58,11.25,14.7,1.17.61,1.77,2.41,2.47,3.73,1.38,2.57,2.24,5.49,4.02,7.72,4.06,5.11,8.4,10.01,12.93,14.71,3.29,3.41,4.88,7.35,4.92,11.91.02,3.66,1.22,6.49,4.25,8.64,6.25,4.43,9.71,10.44,11.28,17.34.44,1.82.73,3.71.91,5.63.26,2.82.82,5.42,1.77,7.79Z"/>
          <path class="cls-1" d="m951.67,1575.4c-1.22.53-2.52,1.05-3.9,1.59-3.83,1.52-8.15,3.24-11.98,6.02-.79.58-1.56,1.12-2.29,1.66-.81-2.87-1.98-5.75-3.5-8.55-2.05-3.82-4.6-7.46-7.53-10.92-14.13-16.81-36.42-29.25-47.95-34.94-.6-.31-1.17-.59-1.72-.86-23.84-11.49-49.28-17.7-74.04-21.18-.35-9.89-1.77-19.48-4.22-28.7-3.93-14.83-11.47-29.14-21.55-41.34-5.18-6.26-11.02-11.97-17.39-16.9-13.53-10.5-28.54-16.95-43.76-19.04-7.47-1.01-14.98-.98-22.38.16-17.09,2.63-32.89,10.57-48.16,18.27-20.82,10.48-40.51,20.38-60.49,15.25-21.81-5.6-35.86-28.34-43.8-46.41-.13-.3-.25-.6-.39-.89-3.04-7.04-5.72-14.26-8.03-21.58-2.57-8.15-4.67-16.44-6.32-24.82-1.54-7.96-2.67-16.01-3.36-24.1-.29-3.67-.12-7.57-1.05-11.11-.82-3.08-.14-5.86-.05-9.15.33-12.52,2.54-25.96,8.49-37.19,4.42-8.34,11.09-15.54,19.36-21.23,4.67-3.21,9.84-5.94,15.4-8.11-1.45-.34-2.85-1.11-4.16-2.36-2.08-1.96-4.74-2.02-6.98-.35-1.47,1.1-2.92,2.25-4.26,3.52-.88.82-1.71,1.68-2.46,2.6-4.08,5-8.75,9.04-14.94,11.21-4.11,1.44-6.7,4.41-8.61,8.3-1.37,2.78-3.41,5.25-5.2,7.82-2.32,3.34-4.95,6.51-7.01,9.99-.76,1.26-1.53,2.48-2.31,3.65-3.2,16.22-2.64,33.25-.84,49.59,1.54,14.12,4.32,28.11,8.34,41.74,2.86,9.75,6.32,19.32,10.41,28.61,12.85,29.23,30.62,47.97,51.55,54.36.8.24,1.61.47,2.43.68,11.7,3.01,22.9,2.19,33.77-.68,12.84-3.38,25.21-9.59,37.37-15.71,14.22-7.16,28.92-14.56,43.63-16.82,6.81-1.05,13.53-.92,20.05.2,26.07,4.42,48.99,24.51,61.15,48.23,2.92,5.69,5.23,11.58,6.81,17.53,1.94,7.35,3.13,15.01,3.56,22.92-3.48-.35-6.94-.66-10.37-.93-8.08-.64-15.99-1.08-23.66-1.41-5.24-.23-10.48-.47-15.71-.7-10.55-.47-21.2-.95-31.94-1.35-8.24-15.13-15.03-31.12-20.16-47.69-.44-1.42-.87-2.86-1.28-4.27-.29-.98-.57-1.94-.84-2.91l-10.42,2.91-4.27,1.19c.7,2.52,1.45,5.09,2.24,7.59,4.53,14.66,10.3,28.92,17.18,42.57-20.1-.61-40.42-.88-60.77-.37-17.56.44-36.02.65-54.55-.38-32.5-1.81-65.17-7.39-93.34-22.01-2.85-1.49-5.58-3.08-8.19-4.78-14.94-9.75-25.78-22.85-30.33-36.93-3.21-9.91-4.1-20.79-3.4-31.72-.98,2.62-2.53,4.95-4.74,7.01-3.97,3.71-4.3,4.74-1.96,9.64,1.73,3.61,1.86,6.93.6,10.62-1.79,5.27-.53,9.69,3.65,13.68,8,7.63,15.77,15.52,23.39,23.54,1.72,1.78,2.42,4.51,3.64,6.77,1.72,3.16,3,6.78,5.38,9.37,1.13,1.25,2.43,2.37,3.77,3.42,2.05,1.59,4.26,3.04,6.34,4.6,1.08.82,2.18,1.61,3.29,2.41,19.07,8.61,39.57,13.74,60.41,16.68,6.74-1.16,13.3-1.02,19.82,2.2.02,0,.04,0,.04.02,1.94.94,3.85,1.05,5.7.4.63-.19,1.24-.49,1.86-.86,1.34-.84,2.74-1.64,4.07-2.52.16-.1.34-.21.49-.31,4.71-3.17,9.64-5.46,15.56-5.41,1.83.04,3.72-1.15,5.54-1.89,1.93-.79,3.78-2.36,5.69-2.41,6.1-.12,12.23.09,18.32.61,3.88.33,6.98,2.2,9.15,5.88,1.61,2.71,3.74,5.11,5.84,7.5,21.28-.38,42.11.02,63.21.77,2.23,3.78,4.55,7.53,6.95,11.18,2.03,3.12,4.13,6.16,6.28,9.17,6.25,8.75,13.02,17.1,20.23,24.95,9.99,10.87,21.34,21.68,34.83,33.1-1.45,2.77-2.99,5.51-4.6,8.28-6.86,11.81-14.84,23.6-22.54,35.03-19.26,28.53-39.13,57.94-45.52,92.25.94,1.59,2.05,3.13,3.34,4.64.96,1.12,1.84,2.31,2.64,3.53,2.43,3.69,4.83,7.4,7.25,11.09.1-3.27.35-6.5.73-9.72,4.18-34,23.62-62.78,44.2-93.26,7.85-11.61,15.99-23.63,23.09-35.9,1.17-2.01,2.33-4.04,3.43-6.05.02.02.05.03.07.05,3.41,2.73,6.95,5.51,10.62,8.35,16.9,13.03,36.97,26.73,62.67,26.73,1.52,0,3.08-.03,4.64-.14,17.49-1.12,33.26-8.52,47.71-16.36,9.23-5.02,18.25-10.22,26.82-15.5,1.36,4.06,2.43,8.43,3.25,13.21,1.21,7.09,1.73,14.4,1.94,21.75.2,6.59.11,13.22.04,19.75l-.04,2.68c-.01,1.83-.03,3.65-.03,5.49-.09,12.2.44,25.74,3.18,38.88,1.25-1,2.47-2.09,3.71-3.21,4.69-4.21,6.25-9.15,7.82-14.48.37-1.23.44-2.77.04-3.96-2.63-7.61-2.68-15.01.54-22.32.18-.42.39-.84.58-1.28.02-.02.02-.05.03-.07l-.59-.89.02-.67c.01-2.01.05-4.02.07-6.05-.46-.66-1-1.35-1.61-2.01-1.67-1.79-2.49-4.41-3.47-6.75-.66-1.54-.59-3.45-1.47-4.8-3.16-4.86-2.78-9.94-1.34-15.15,1.24-4.48.89-8.48-2.82-11.81-1-.87-1.77-2.1-2.36-3.32-.34-.67-.37-1.77-.06-2.44,3.28-6.71,6.49-13.45,10.05-20.03,1.36-2.53,3.16-5.09,5.4-6.82,2.15-1.66,3.68-3.5,5.15-5.71,1.47-2.2,3.48-4.07,5.47-5.86.34-.28.67-.56.98-.84-2.92,1.4-5.7,2.66-8.26,3.8Zm-183.86,5.72c-11.7-10.08-21.69-19.65-30.49-29.25-9.72-10.57-18.53-22.05-26.37-34.26,7.26.3,14.59.63,21.99.95,5.23.24,10.48.47,15.73.7,7.87.33,16.01.78,24.32,1.48,3.39.27,6.82.58,10.27.95-.95,14.99-4.39,30.7-10.27,46.64-1.54,4.25-3.27,8.52-5.18,12.79Zm123.52,29.29c-12.89,7-26.84,13.61-41.38,14.52-20.47,1.31-36.98-8.01-57.03-23.44-4.53-3.48-8.84-6.9-12.95-10.22,6.81-14.56,11.84-29.13,15.01-43.51,1.8-8.21,2.98-16.27,3.52-24.16,22.85,3.35,46.08,9.15,67.65,19.56,1.95.94,4.87,2.39,8.37,4.3,7.47,4.09,17.58,10.23,26.4,17.74,6.38,5.42,12.11,11.57,15.66,18.16,1.45,2.7,2.43,5.57,2.74,8.07.13.85.27,1.68.46,2.45-9.03,5.63-18.58,11.18-28.45,16.53Zm37.63,102.68c-5.89,1.19-12.61,2.56-18.8,5.81-9.73,5.08-16.08,13.39-20.91,22.52,3.71-2.5,7.52-4.92,11.25-7.42,1.07-.73,2.13-1.64,2.83-2.73,3.87-6,8.61-11.14,15.66-13.05,4.22-1.16,7.81-3.03,11.16-5.37l-1.19.24Z"/>
          <path class="cls-1" d="m871.63,1792.2c-2.7,1.53-3.63,3.86-4.46,7.01-2.4,9.07-4.74,18.31-12.17,25.14-12.64,11.63-25.12,23.44-37.57,35.26-3.91,3.72-8.16,6.53-13.61,7.46-1.91.33-3.62,1.8-5.54,2.13-3.66.64-7.51,1.61-11.06,1.07-6.38-.96-12.36-.58-18.7.72-5.31,1.09-10.92.51-16.44,1.08,9.11,4.19,18.56,6.35,28.03,6.34,1.17,0,2.34-.03,3.52-.1,20.21-1.14,39.94-11.68,60.31-32.22,17.88-18.03,32.85-39.41,43.77-62.44-2.84,2.23-6.33,3.66-9.58,5.35-2.14,1.12-4.4,2-6.49,3.18Z"/>
          <path class="cls-1" d="m1012.14,1450.57c-1.22.16-2.47.26-3.73.31-2.27.07-4.11.72-5.65,2.76-.89,1.17-3.11,2.12-4.58,1.91-1.99-.26-3.92-.32-5.81-.14-4.08-2.5-8.38-4.92-12.77-7.37-3.92-2.19-7.91-4.43-11.83-6.79-3.25-1.96-6.46-4.01-9.54-6.21-18.9-13.56-32.16-32.42-43.91-52.05-1.15-1.92-2.29-3.85-3.41-5.77,0-.02-.02-.02-.02-.04-2.19-3.76-4.34-7.52-6.49-11.27-.4-.72-.82-1.43-1.22-2.15-14.52-25.42-28.52-49.25-51.25-63.98-20.68-13.42-45.44-17.2-71.65-21.22-8.94-1.36-18.13-2.76-27.19-4.6-3.78-.77-7.54-1.61-11.27-2.55-20.05-5.07-39.14-13.21-57.58-21.1-3.06-1.31-6.18-2.64-9.31-3.95.33-.52.65-.96,1.01-1.38,2.36-2.69,4.9-5.23,7.38-7.8,1-1.05,1.49-2.1,1.28-3.29,1.87.8,3.76,1.59,5.62,2.4,17.92,7.65,36.44,15.57,55.32,20.35,4.78,1.21,9.68,2.24,14.64,3.17,7.44,1.4,14.99,2.55,22.39,3.69,3.25.51,6.51,1,9.78,1.52,12.49,1.99,25.04,4.3,37.14,8.03,9.55,2.92,18.83,6.75,27.57,11.98,1.07.65,2.1,1.3,3.15,1.96,2.13,1.4,4.2,2.83,6.19,4.36,4.58,3.45,8.8,7.23,12.77,11.27,15.8,16.08,27.26,36.15,38.44,55.74,1.03,1.82,2.06,3.62,3.1,5.42,13.23,23.04,26.31,44.46,46.38,58.87,6.09,4.36,12.81,8.12,19.93,12.09,8.63,4.81,17.41,9.73,25.09,15.83Z"/>
          <path class="cls-1" d="m1045.85,1701.57c-6.05-5.39-13.55-6.89-20.52-6.87.25,2.78.51,5.58.75,8.36.16,1.63.21,3.25.35,5.49-2.18-.84-3.77-1.47-5.42-2.1-.21.35-.56.65-.51.84.32,1.02.51,2.02.62,2.98,5.93-.65,11.25-.26,14.59,2.71,5.82,5.18,2.94,17.34-3.54,24.74-6.26,7.17-15.31,12.09-25.49,14-.79.15-1.59.28-2.4.38-1.41.21-2.86.37-4.33.44-12.16.65-23.78-2.98-32.2-9.99-.49-.42-.98-.84-1.43-1.26-5.41-4.99-9.41-11.04-12.37-17.71l14.38-2.92c.23-1.26.6-2.52,1.07-3.76.16-.4.31-.79.49-1.17.17-.4.36-.79.57-1.16.28-.56.6-1.1.93-1.61.21-.31.42-.61.63-.91.25-.33.49-.64.75-.94.27-.3.53-.6.81-.88.19-.21.4-.42.61-.61.23-.21.46-.4.7-.58.19-.15.4-.31.61-.45.49-.35,1-.65,1.53-.89,3.43-1.6,7.34-2.14,11.04-3.14.59-.15,1.66-.03,1.76-.31,1.07-2.85,3.8-3.67,6.3-4.81l-23.51,4.78-23.45,4.77c-2.87-12.47-3.39-25.81-3.3-37.68,0-1.75.01-3.47.03-5.2v-.25l.02-1.99.02-.67c.01-2.01.05-4.02.07-6.05.08-12.56-.09-25.42-2.28-38.19-1.17-6.91-2.9-13.35-5.16-19.18,1.92-1.34,3.97-2.8,6.19-4.42,2.28-1.65,5.36-2.87,8.63-4.17,1.45-.58,2.96-1.17,4.44-1.82,8.94-3.95,20.56-9.45,31.25-17.04,4.93-3.5,9.64-7.45,14-11.72,1.05-1.05,2.29-2.26,3.48-3.57,9.1-9.96,36.3-43.41,26.33-77.16-2.19,4.36-3.69,9-4.71,13.89-.57,2.87-2.08,5.73-3.79,8.16-2.61,3.72-5.25,7.43-7.93,11.11-5.49,15.43-16.37,28.46-21.17,33.71-.94,1.03-1.99,2.07-2.9,2.96-3.8,3.73-7.88,7.15-12.14,10.18-6.62,4.71-13.79,8.57-20.32,11.72-2.92,1.4-5.7,2.66-8.26,3.8-1.22.53-2.52,1.05-3.9,1.59-3.83,1.52-8.15,3.24-11.98,6.02-.79.58-1.56,1.12-2.29,1.66-.81-2.87-1.98-5.75-3.5-8.55-2.05-3.82-4.6-7.46-7.53-10.92-14.13-16.81-36.42-29.25-47.95-34.94-.6-.31-1.17-.59-1.72-.86-23.84-11.49-49.28-17.7-74.04-21.18-.35-9.89-1.77-19.48-4.22-28.7-3.93-14.83-11.47-29.14-21.55-41.34-5.18-6.26-11.02-11.97-17.39-16.9-13.53-10.5-28.54-16.95-43.76-19.04-7.47-1.01-14.98-.98-22.38.16-17.09,2.63-32.89,10.57-48.16,18.27-20.82,10.48-40.51,20.38-60.49,15.25-21.81-5.6-35.86-28.34-43.8-46.41-.13-.3-.25-.6-.39-.89-3.04-7.04-5.72-14.26-8.03-21.58-2.57-8.15-4.67-16.44-6.32-24.82-1.54-7.96-2.67-16.01-3.36-24.1-.29-3.67-.12-7.57-1.05-11.11-.82-3.08-.14-5.86-.05-9.15.33-12.52,2.54-25.96,8.49-37.19,4.42-8.34,11.09-15.54,19.36-21.23,4.67-3.21,9.84-5.94,15.4-8.11,8.28-3.22,17.38-5.23,26.95-5.81,4.39-.26,8.76-.26,13.12,0,3.3-2.08,7.22-2.17,11-2.64,1.22-.16,2.43-.31,3.65-.46,9.84-1.25,19.7-2.41,29.56-3.58-9.33-2.94-19.28-5.49-29.56-7.07-9.36-1.44-19-2.08-28.7-1.49-15.07.91-29.24,4.92-41.42,11.39-14.26,7.58-25.79,18.53-32.85,31.84-3.5,6.63-6.06,13.95-7.68,22.2-3.2,16.22-2.64,33.25-.84,49.59,1.54,14.12,4.32,28.11,8.34,41.74,2.86,9.75,6.32,19.32,10.41,28.61,12.85,29.23,30.62,47.97,51.55,54.36.8.24,1.61.47,2.43.68,11.7,3.01,22.9,2.19,33.77-.68,12.84-3.38,25.21-9.59,37.37-15.71,14.22-7.16,28.92-14.56,43.63-16.82,6.81-1.05,13.53-.92,20.05.2,26.07,4.42,48.99,24.51,61.15,48.23,2.92,5.69,5.23,11.58,6.81,17.53,1.94,7.35,3.13,15.01,3.56,22.92-3.48-.35-6.94-.66-10.37-.93-8.08-.64-15.99-1.08-23.66-1.41-5.24-.23-10.48-.47-15.71-.7-10.55-.47-21.2-.95-31.94-1.35-8.24-15.13-15.03-31.12-20.16-47.69-.44-1.42-.87-2.86-1.28-4.27-.29-.98-.57-1.94-.84-2.91l-10.42,2.91-4.27,1.19c.7,2.52,1.45,5.09,2.24,7.59,4.53,14.66,10.3,28.92,17.18,42.57-20.1-.61-40.42-.88-60.77-.37-17.56.44-36.02.65-54.55-.38-32.5-1.81-65.17-7.39-93.34-22.01-2.85-1.49-5.58-3.08-8.19-4.78-14.94-9.75-25.78-22.85-30.33-36.93-3.21-9.91-4.1-20.79-3.4-31.72.44-6.97,1.51-13.93,3.03-20.72-.05-3.13-.39-6.28-.39-9.43,0-1.54.11-3.45.98-4.57,4.34-5.59,4.43-6.31.55-12.16-2.16-3.21-1.89-6.63.08-9.79,1.09-1.79,2.79-3.17,3.92-4.92,1.17-1.82,1.94-3.88,3.01-5.76.88-1.57,1.61-3.65,3.01-4.44,6.12-3.43,9.99-8.68,12.67-14.85,1.78-4.12,4.55-7.23,7.84-10.13,2.59-2.28,5.05-4.78,7.13-7.49.88-1.14,1.81-2.17,2.8-3.08-2.83,1.31-5.58,2.8-8.25,4.46-14.58,9.06-26.69,23.6-35.98,43.2-12.23,25.82-21.69,64.63-11.53,96.08,6.46,19.99,22.77,38.13,44.86,49.94.39.21.77.42,1.16.61,2.78,1.45,5.6,2.82,8.47,4.11,19.07,8.61,39.57,13.74,60.41,16.68,6.6.94,13.21,1.66,19.82,2.2,1.91.16,3.83.3,5.74.42,1.98.14,3.96.26,5.93.35,18.72,1.01,37.29.8,54.94.37,1.89-.06,3.76-.09,5.65-.13,21.28-.38,42.11.02,63.21.77,2.23,3.78,4.55,7.53,6.95,11.18,2.03,3.12,4.13,6.16,6.28,9.17,6.25,8.75,13.02,17.1,20.23,24.95,9.99,10.87,21.34,21.68,34.83,33.1-1.45,2.77-2.99,5.51-4.6,8.28-6.86,11.81-14.84,23.6-22.54,35.03-19.26,28.53-39.13,57.94-45.52,92.25-.47,2.54-.86,5.09-1.17,7.68-3.15,25.7,1.87,53.35,14.57,79.94,7.98,16.74,19.49,31.74,32.39,42.24,3.04,2.46,6.14,4.68,9.3,6.64-2.39-2.8-4.72-5.66-6.96-8.6-.59-.79-.63-2.58-.14-3.49,1.4-2.67,1.19-5.26.4-7.96-.71-2.53-1.54-5.02-2.46-7.45-7.89-8.59-14.28-18.53-18.76-27.96-9.83-20.59-14.59-41.76-13.94-61.78.1-3.27.35-6.5.73-9.72,4.18-34,23.62-62.78,44.2-93.26,7.85-11.61,15.99-23.63,23.09-35.9,1.17-2.01,2.33-4.04,3.43-6.05.02.02.05.03.07.05,3.41,2.73,6.95,5.51,10.62,8.35,16.9,13.03,36.97,26.73,62.67,26.73,1.52,0,3.08-.03,4.64-.14,17.49-1.12,33.26-8.52,47.71-16.36,9.23-5.02,18.25-10.22,26.82-15.5,1.36,4.06,2.43,8.43,3.25,13.21,1.21,7.09,1.73,14.4,1.94,21.75.2,6.59.11,13.22.04,19.75l-.04,2.68c-.01,1.83-.03,3.65-.03,5.49-.09,12.2.44,25.74,3.18,38.88.13.66.27,1.31.42,1.96l-4.06.82-1.19.24c-5.89,1.19-12.61,2.56-18.8,5.81-9.73,5.08-16.08,13.39-20.91,22.52-.91,1.73-1.75,3.5-2.57,5.27.24,2.86.52,5.75,1.06,8.57.46,2.29,1.53,4.46,2.21,6.72.51,1.69,1.14,3.46,1.17,5.21.04,3.36,0,6.77-.51,10.08.93-2.1,1.81-4.22,2.66-6.35.65-1.63,1.3-3.27,1.93-4.94,5.32-13.61,10.81-27.69,22.02-33.57,4.29-2.24,9.63-3.33,14.79-4.38l6.66-1.34c3.8,9.59,9.33,18.46,17.31,25.8.73.69,1.49,1.35,2.27,1.98,11.01,9.05,25.76,13.86,41.12,13.35.47-.02.94-.03,1.42-.07,4.7-.25,9.32-1,13.75-2.2,11.47-3.12,21.69-9.29,29.13-17.8,11.37-13.01,15.45-34.38,2.18-46.19Zm-278.04-120.44c-11.7-10.08-21.69-19.65-30.49-29.25-9.72-10.57-18.53-22.05-26.37-34.26,7.26.3,14.59.63,21.99.95,5.23.24,10.48.47,15.73.7,7.87.33,16.01.78,24.32,1.48,3.39.27,6.82.58,10.27.95-.95,14.99-4.39,30.7-10.27,46.64-1.54,4.25-3.27,8.52-5.18,12.79Zm123.52,29.29c-12.89,7-26.84,13.61-41.38,14.52-20.47,1.31-36.98-8.01-57.03-23.44-4.53-3.48-8.84-6.9-12.95-10.22,6.81-14.56,11.84-29.13,15.01-43.51,1.8-8.21,2.98-16.27,3.52-24.16,22.85,3.35,46.08,9.15,67.65,19.56,1.95.94,4.87,2.39,8.37,4.3,7.47,4.09,17.58,10.23,26.4,17.74,6.38,5.42,12.11,11.57,15.66,18.16,1.45,2.7,2.43,5.57,2.74,8.07.13.85.27,1.68.46,2.45-9.03,5.63-18.58,11.18-28.45,16.53Z"/>
          <path class="cls-1" d="m484.94,1295.05v16.69c-.84.32-1.71.6-2.26.87-1.59.82-3.17,1.7-4.69,2.64-12.05,7.49-22.24,19.86-30.25,36.76-4.44,9.38-8.49,20.61-11.16,32.44-.05-3.13-.38-6.28-.38-9.43,0-1.54.1-3.45.98-4.57,4.34-5.6,4.43-6.32.54-12.16-2.15-3.22-1.89-6.63.09-9.8,1.08-1.78,2.78-3.17,3.92-4.92,1.17-1.82,1.94-3.88,3.01-5.76.87-1.57,1.61-3.66,3.01-4.44,6.12-3.43,9.99-8.68,12.67-14.85,1.78-4.11,4.55-7.23,7.84-10.13,2.59-2.27,5.06-4.78,7.14-7.49.87-1.14,1.8-2.17,2.8-3.08,2.2-1.03,4.46-1.96,6.75-2.78Z"/>
          <path class="cls-1" d="m890.61,1777.27c-.93,2.13-1.91,4.27-2.9,6.39v.02c-2.85,2.22-6.33,3.64-9.59,5.34-2.13,1.12-4.39,2.01-6.49,3.18-2.69,1.52-3.62,3.87-4.46,7.02-2.4,9.06-4.74,18.32-12.18,25.14-12.65,11.63-25.11,23.44-37.56,35.27-3.92,3.71-8.17,6.53-13.61,7.45-1.92.33-3.62,1.8-5.55,2.13-3.66.65-7.51,1.61-11.06,1.07-6.39-.96-12.35-.58-18.7.72-5.3,1.1-10.92.52-16.43,1.08-2.96-1.36-5.88-2.94-8.75-4.72-2.4-2.8-4.72-5.67-6.96-8.61-.59-.79-.63-2.57-.14-3.48,1.4-2.68,1.19-5.27.4-7.96-.72-2.54-1.54-5.02-2.47-7.45,12.77,13.93,29.5,24.32,48.6,23.23,16.27-.91,32.73-9.99,50.34-27.73,19.7-19.86,35.6-44.11,46-70.09.63-1.59,1.26-3.2,1.89-4.83,1.75-4.5,3.59-9.17,5.69-13.75.24,2.87.52,5.76,1.07,8.57.45,2.29,1.52,4.46,2.2,6.72.51,1.7,1.14,3.46,1.17,5.21.04,3.36,0,6.77-.51,10.08Z"/>
          <path class="cls-1" d="m683.34,1237.17c-2.48,2.57-5.02,5.11-7.38,7.8-.37.42-.69.86-1.02,1.39-3.55-1.51-7.14-3-10.69-4.43-14.69-5.93-31.19-11.84-48.47-14.74-4.83-.82-9.72-1.39-14.65-1.67,3.3-2.08,7.22-2.17,11-2.64,1.22-.16,2.43-.31,3.65-.46,9.84-1.25,19.7-2.41,29.56-3.58,8.83,2.78,17.13,5.91,24.62,8.94,4.89,1.97,9.81,4.04,14.66,6.1.21,1.19-.28,2.24-1.28,3.29Z"/>
          <path class="cls-1" d="m1020.5,1707.29c.31,1.01.51,2.01.61,2.97-2.66.28-5.44.77-8.22,1.35l-31.2,6.33-13.37,2.71c.23-1.26.59-2.52,1.07-3.76.16-.4.31-.79.49-1.17.17-.4.37-.79.58-1.15.28-.56.59-1.1.93-1.61.21-.31.42-.61.63-.91.24-.33.49-.65.75-.94.26-.3.52-.59.8-.87.19-.21.4-.42.61-.61.23-.21.45-.4.7-.58.19-.16.4-.31.61-.45.49-.35,1-.65,1.52-.89,3.43-1.59,7.35-2.13,11.04-3.13.59-.16,1.66-.04,1.77-.31,1.07-2.85,3.8-3.67,6.3-4.81l13.72-2.78c3.99-.8,9.54-1.94,15.48-1.96.24,2.78.51,5.58.75,8.36.16,1.63.21,3.25.35,5.49-2.19-.84-3.78-1.47-5.42-2.1-.21.35-.56.65-.51.84Z"/>
          <path class="cls-1" d="m1006.68,1751.71c-.35.8-.72,1.61-1.08,2.4-1.99,4.46-4.09,8.89-6.07,13.35-.05.12-.1.24-.16.37-15.36.51-30.11-4.3-41.12-13.35.3-.31.63-.58.96-.77,4.83-2.66,7.33-6.6,8.54-11.16,8.42,7.02,20.03,10.64,32.19,9.99,1.47-.07,2.92-.23,4.34-.44.8-.11,1.61-.23,2.4-.38Z"/>
        </g>
      </g>
    </g>
  </g>
</svg>